<?xml version="1.0" encoding="UTF-8" standalone="no"?>
<svg
   xmlns:dc="http://purl.org/dc/elements/1.1/"
   xmlns:cc="http://creativecommons.org/ns#"
   xmlns:rdf="http://www.w3.org/1999/02/22-rdf-syntax-ns#"
   xmlns:svg="http://www.w3.org/2000/svg"
   xmlns="http://www.w3.org/2000/svg"
   xmlns:sodipodi="http://sodipodi.sourceforge.net/DTD/sodipodi-0.dtd"
   xmlns:inkscape="http://www.inkscape.org/namespaces/inkscape"
   version="1.1"
   width="24"
   height="24"
   viewBox="0 0 24 24"
   id="svg3725"
   sodipodi:docname="switcher.svg">
  <metadata
     id="metadata3731">
    <rdf:RDF>
      <cc:Work
         rdf:about="">
        <dc:format>image/svg+xml</dc:format>
        <dc:type
           rdf:resource="http://purl.org/dc/dcmitype/StillImage" />
      </cc:Work>
    </rdf:RDF>
  </metadata>
  <defs
     id="defs3729" />
  <sodipodi:namedview
     pagecolor="#ffffff"
     bordercolor="#666666"
     borderopacity="1"
     objecttolerance="10"
     gridtolerance="10"
     guidetolerance="10"
     inkscape:pageopacity="0"
     inkscape:pageshadow="2"
     inkscape:window-width="640"
     inkscape:window-height="480"
     id="namedview3727"
     showgrid="false" />
  <path
     d="M 0.00487801,15.009756 V 5.0097561 A 5,5 0 0 1 5.004878,0.00975612 a 5,5 0 0 1 5,4.99999998 v 9.9999999 a 5,5 0 0 1 -5,5 5,5 0 0 1 -4.99999999,-5 m 7.99999959,0 a 3,3 0 0 0 -2.9999996,-3 3,3 0 0 0 -3,3 3,3 0 0 0 3,3 3,3 0 0 0 2.9999996,-3 z"
     style="fill:#000000"
     id="path3723"
     inkscape:connector-curvature="0" />
  <!---->
</svg>
